<svg xmlns="http://www.w3.org/2000/svg" xmlns:xlink="http://www.w3.org/1999/xlink" width="500" zoomAndPan="magnify" viewBox="0 0 375 374.999991" height="500" preserveAspectRatio="xMidYMid meet" version="1.0"><defs><clipPath id="605481e45e"><path d="M 124.703125 147.46875 L 249.953125 147.46875 L 249.953125 227.71875 L 124.703125 227.71875 Z M 124.703125 147.46875 " clip-rule="nonzero"/></clipPath></defs><g clip-path="url(#605481e45e)"><path fill="#c1ff72" d="M 151.753906 191.019531 L 158.703125 195.03125 C 159.300781 195.375 159.507812 196.144531 159.164062 196.742188 L 155.148438 203.691406 C 154.804688 204.289062 154.035156 204.492188 153.441406 204.148438 L 146.492188 200.136719 C 145.894531 199.789062 145.6875 199.023438 146.035156 198.425781 L 150.046875 191.476562 C 150.390625 190.882812 151.160156 190.675781 151.753906 191.019531 M 159.957031 176.816406 L 166.90625 180.828125 C 167.503906 181.171875 167.710938 181.941406 167.363281 182.539062 L 163.351562 189.488281 C 163.007812 190.082031 162.238281 190.289062 161.640625 189.945312 L 154.691406 185.929688 C 154.09375 185.589844 153.890625 184.816406 154.234375 184.222656 L 158.246094 177.269531 C 158.589844 176.679688 159.359375 176.472656 159.957031 176.816406 Z M 168.15625 162.609375 L 175.105469 166.621094 C 175.703125 166.964844 175.910156 167.734375 175.5625 168.332031 L 171.550781 175.28125 C 171.207031 175.878906 170.4375 176.082031 169.839844 175.738281 L 162.894531 171.726562 C 162.296875 171.386719 162.09375 170.617188 162.4375 170.019531 L 166.449219 163.070312 C 166.792969 162.472656 167.5625 162.265625 168.15625 162.609375 Z M 223.46875 213.484375 L 230.417969 217.5 C 231.015625 217.839844 231.21875 218.609375 230.878906 219.207031 L 226.867188 226.15625 C 226.523438 226.753906 225.753906 226.960938 225.15625 226.613281 L 218.207031 222.601562 C 217.609375 222.257812 217.402344 221.488281 217.75 220.890625 L 221.761719 213.941406 C 222.101562 213.347656 222.871094 213.140625 223.46875 213.484375 Z M 231.671875 199.28125 L 238.621094 203.292969 C 239.214844 203.636719 239.421875 204.40625 239.078125 205.003906 L 235.066406 211.953125 C 234.722656 212.550781 233.953125 212.757812 233.359375 212.410156 L 226.40625 208.398438 C 225.8125 208.054688 225.609375 207.285156 225.949219 206.691406 L 229.964844 199.742188 C 230.308594 199.140625 231.074219 198.933594 231.671875 199.28125 Z M 234.484375 184.136719 L 237.847656 186.078125 L 234.148438 192.484375 C 233.804688 193.082031 234.011719 193.847656 234.605469 194.195312 L 241.554688 198.207031 C 242.152344 198.550781 242.917969 198.347656 243.265625 197.75 L 246.964844 191.34375 L 250.242188 193.238281 L 230.445312 227.527344 L 209.4375 227.527344 Z M 147.261719 217.351562 C 146.921875 217.949219 146.152344 218.152344 145.554688 217.808594 L 138.605469 213.796875 C 138.007812 213.453125 137.804688 212.683594 138.148438 212.085938 L 141.84375 205.679688 C 142.1875 205.085938 142.957031 204.878906 143.554688 205.222656 L 150.503906 209.234375 C 151.101562 209.578125 151.308594 210.347656 150.960938 210.945312 Z M 145.761719 227.523438 L 150.539062 219.246094 L 154.238281 212.839844 L 186.726562 156.566406 L 183.453125 154.675781 L 179.753906 161.074219 C 179.410156 161.671875 178.640625 161.878906 178.042969 161.53125 L 171.09375 157.519531 C 170.5 157.175781 170.292969 156.40625 170.636719 155.8125 L 174.335938 149.410156 L 170.972656 147.46875 L 138.480469 203.742188 L 134.785156 210.144531 L 124.753906 227.523438 L 129.933594 227.523438 C 129.730469 227.152344 129.71875 226.6875 129.945312 226.292969 L 133.957031 219.34375 C 134.300781 218.746094 135.070312 218.542969 135.667969 218.886719 L 142.617188 222.898438 C 143.214844 223.242188 143.421875 224.011719 143.074219 224.605469 L 141.390625 227.523438 Z M 155.90625 227.523438 L 158.148438 223.636719 L 161.847656 217.234375 L 171.347656 200.773438 C 172.652344 198.511719 175.570312 197.734375 177.832031 199.039062 L 202.152344 213.078125 C 204.410156 214.382812 205.195312 217.300781 203.886719 219.5625 L 199.292969 227.523438 Z M 226.875 179.742188 L 213.679688 202.605469 C 212.371094 204.867188 209.457031 205.648438 207.195312 204.34375 L 182.875 190.304688 C 180.617188 189 179.832031 186.082031 181.136719 183.820312 L 194.335938 160.957031 Z M 226.875 179.742188 " fill-opacity="1" fill-rule="evenodd"/></g></svg>