<svg xmlns="http://www.w3.org/2000/svg" xmlns:xlink="http://www.w3.org/1999/xlink" width="500" zoomAndPan="magnify" viewBox="0 0 375 374.999991" height="500" preserveAspectRatio="xMidYMid meet" version="1.0"><defs><clipPath id="e41ab439ee"><path d="M 112.5 137.15625 L 190 137.15625 L 190 237.65625 L 112.5 237.65625 Z M 112.5 137.15625 " clip-rule="nonzero"/></clipPath><clipPath id="39b80329ec"><path d="M 121 165 L 262.5 165 L 262.5 210 L 121 210 Z M 121 165 " clip-rule="nonzero"/></clipPath></defs><g clip-path="url(#e41ab439ee)"><path fill="#7ed957" d="M 189.589844 213.960938 L 186.234375 217.3125 L 167.710938 235.839844 C 166.425781 237.125 164.714844 237.832031 162.898438 237.832031 C 161.082031 237.832031 159.375 237.125 158.089844 235.839844 L 132.207031 209.957031 L 121.078125 198.824219 L 114.554688 192.304688 C 113.269531 191.019531 112.5625 189.3125 112.5625 187.492188 C 112.5625 185.675781 113.269531 183.96875 114.554688 182.683594 L 121.078125 176.164062 L 132.210938 165.027344 L 158.089844 139.144531 C 159.375 137.859375 161.082031 137.15625 162.898438 137.15625 C 164.714844 137.15625 166.425781 137.859375 167.710938 139.144531 L 185.855469 157.292969 L 189.589844 161.023438 L 183.929688 161.023438 L 180.195312 157.292969 L 164.878906 141.976562 C 164.351562 141.445312 163.648438 141.15625 162.898438 141.15625 C 162.152344 141.15625 161.449219 141.445312 160.917969 141.976562 L 117.382812 185.511719 C 116.855469 186.042969 116.5625 186.746094 116.5625 187.492188 C 116.5625 188.242188 116.855469 188.941406 117.382812 189.472656 L 137.867188 209.957031 L 160.917969 233.011719 C 161.449219 233.539062 162.152344 233.828125 162.898438 233.828125 C 163.648438 233.828125 164.351562 233.539062 164.878906 233.011719 L 183.933594 213.957031 L 189.589844 213.957031 Z M 189.589844 213.960938 " fill-opacity="1" fill-rule="nonzero"/></g><g clip-path="url(#39b80329ec)"><path fill="#c1ff72" d="M 257.636719 165.027344 L 143.527344 165.027344 L 139.753906 168.800781 L 142.707031 168.800781 C 143.195312 168.800781 143.59375 169.195312 143.59375 169.683594 L 143.59375 173.113281 C 143.59375 173.605469 143.195312 174 142.707031 174 L 139.277344 174 C 138.789062 174 138.390625 173.605469 138.390625 173.113281 L 138.390625 170.164062 L 121.078125 187.476562 L 121.078125 187.511719 L 138.390625 204.824219 L 138.390625 201.871094 C 138.390625 201.382812 138.789062 200.988281 139.277344 200.988281 L 142.707031 200.988281 C 143.195312 200.988281 143.59375 201.382812 143.59375 201.871094 L 143.59375 205.300781 C 143.59375 205.792969 143.195312 206.1875 142.707031 206.1875 L 139.753906 206.1875 L 143.523438 209.957031 L 257.636719 209.957031 C 260.289062 209.957031 262.4375 207.808594 262.4375 205.15625 L 262.4375 169.828125 C 262.4375 167.175781 260.289062 165.027344 257.636719 165.027344 Z M 153.996094 205.300781 C 153.996094 205.792969 153.601562 206.1875 153.113281 206.1875 L 149.683594 206.1875 C 149.195312 206.1875 148.792969 205.792969 148.792969 205.300781 L 148.792969 201.871094 C 148.792969 201.382812 149.195312 200.988281 149.683594 200.988281 L 153.113281 200.988281 C 153.601562 200.988281 153.996094 201.382812 153.996094 201.871094 Z M 153.996094 173.113281 C 153.996094 173.605469 153.601562 174 153.113281 174 L 149.683594 174 C 149.195312 174 148.792969 173.605469 148.792969 173.113281 L 148.792969 169.683594 C 148.792969 169.195312 149.195312 168.800781 149.683594 168.800781 L 153.113281 168.800781 C 153.601562 168.800781 153.996094 169.195312 153.996094 169.683594 Z M 164.398438 205.300781 C 164.398438 205.792969 164.003906 206.1875 163.515625 206.1875 L 160.085938 206.1875 C 159.59375 206.1875 159.199219 205.792969 159.199219 205.300781 L 159.199219 201.871094 C 159.199219 201.382812 159.59375 200.988281 160.085938 200.988281 L 163.515625 200.988281 C 164.003906 200.988281 164.398438 201.382812 164.398438 201.871094 Z M 164.398438 173.113281 C 164.398438 173.605469 164.003906 174 163.515625 174 L 160.085938 174 C 159.59375 174 159.199219 173.605469 159.199219 173.113281 L 159.199219 169.683594 C 159.199219 169.195312 159.59375 168.800781 160.085938 168.800781 L 163.515625 168.800781 C 164.003906 168.800781 164.398438 169.195312 164.398438 169.683594 Z M 174.804688 205.300781 C 174.804688 205.792969 174.40625 206.1875 173.917969 206.1875 L 170.488281 206.1875 C 169.996094 206.1875 169.601562 205.792969 169.601562 205.300781 L 169.601562 201.871094 C 169.601562 201.382812 169.996094 200.988281 170.488281 200.988281 L 173.917969 200.988281 C 174.40625 200.988281 174.804688 201.382812 174.804688 201.871094 Z M 174.804688 173.113281 C 174.804688 173.605469 174.40625 174 173.917969 174 L 170.488281 174 C 169.996094 174 169.601562 173.605469 169.601562 173.113281 L 169.601562 169.683594 C 169.601562 169.195312 169.996094 168.800781 170.488281 168.800781 L 173.917969 168.800781 C 174.40625 168.800781 174.804688 169.195312 174.804688 169.683594 Z M 185.207031 205.300781 C 185.207031 205.792969 184.8125 206.1875 184.324219 206.1875 L 180.894531 206.1875 C 180.40625 206.1875 180.003906 205.792969 180.003906 205.300781 L 180.003906 201.871094 C 180.003906 201.382812 180.40625 200.988281 180.894531 200.988281 L 184.324219 200.988281 C 184.8125 200.988281 185.207031 201.382812 185.207031 201.871094 Z M 185.207031 173.113281 C 185.207031 173.605469 184.8125 174 184.324219 174 L 180.894531 174 C 180.40625 174 180.003906 173.605469 180.003906 173.113281 L 180.003906 169.683594 C 180.003906 169.195312 180.40625 168.800781 180.894531 168.800781 L 184.324219 168.800781 C 184.8125 168.800781 185.207031 169.195312 185.207031 169.683594 Z M 200.8125 169.683594 C 200.8125 169.195312 201.207031 168.800781 201.699219 168.800781 L 205.128906 168.800781 C 205.617188 168.800781 206.015625 169.195312 206.015625 169.683594 L 206.015625 173.113281 C 206.015625 173.605469 205.617188 174 205.128906 174 L 201.699219 174 C 201.207031 174 200.8125 173.605469 200.8125 173.113281 Z M 194.726562 168.800781 C 195.214844 168.800781 195.609375 169.195312 195.609375 169.683594 L 195.609375 173.113281 C 195.609375 173.605469 195.214844 174 194.726562 174 L 191.296875 174 C 190.808594 174 190.410156 173.605469 190.410156 173.113281 L 190.410156 169.683594 C 190.410156 169.195312 190.808594 168.800781 191.296875 168.800781 Z M 191.296875 206.1875 C 190.808594 206.1875 190.410156 205.792969 190.410156 205.300781 L 190.410156 201.871094 C 190.410156 201.382812 190.808594 200.988281 191.296875 200.988281 L 194.726562 200.988281 C 195.214844 200.988281 195.609375 201.382812 195.609375 201.871094 L 195.609375 205.300781 C 195.609375 205.792969 195.214844 206.1875 194.726562 206.1875 Z M 206.015625 205.300781 C 206.015625 205.792969 205.617188 206.1875 205.128906 206.1875 L 201.699219 206.1875 C 201.207031 206.1875 200.8125 205.792969 200.8125 205.300781 L 200.8125 201.871094 C 200.8125 201.382812 201.207031 200.988281 201.699219 200.988281 L 205.128906 200.988281 C 205.617188 200.988281 206.015625 201.382812 206.015625 201.871094 Z M 216.417969 205.300781 C 216.417969 205.792969 216.023438 206.1875 215.535156 206.1875 L 212.105469 206.1875 C 211.613281 206.1875 211.214844 205.792969 211.214844 205.300781 L 211.214844 201.871094 C 211.214844 201.382812 211.613281 200.988281 212.105469 200.988281 L 215.535156 200.988281 C 216.023438 200.988281 216.417969 201.382812 216.417969 201.871094 Z M 216.417969 173.113281 C 216.417969 173.605469 216.023438 174 215.535156 174 L 212.105469 174 C 211.613281 174 211.214844 173.605469 211.214844 173.113281 L 211.214844 169.683594 C 211.214844 169.195312 211.613281 168.800781 212.105469 168.800781 L 215.535156 168.800781 C 216.023438 168.800781 216.417969 169.195312 216.417969 169.683594 Z M 226.820312 205.300781 C 226.820312 205.792969 226.425781 206.1875 225.9375 206.1875 L 222.507812 206.1875 C 222.015625 206.1875 221.621094 205.792969 221.621094 205.300781 L 221.621094 201.871094 C 221.621094 201.382812 222.015625 200.988281 222.507812 200.988281 L 225.9375 200.988281 C 226.425781 200.988281 226.820312 201.382812 226.820312 201.871094 Z M 226.820312 173.113281 C 226.820312 173.605469 226.425781 174 225.9375 174 L 222.507812 174 C 222.015625 174 221.621094 173.605469 221.621094 173.113281 L 221.621094 169.683594 C 221.621094 169.195312 222.015625 168.800781 222.507812 168.800781 L 225.9375 168.800781 C 226.425781 168.800781 226.820312 169.195312 226.820312 169.683594 Z M 237.226562 205.300781 C 237.226562 205.792969 236.828125 206.1875 236.339844 206.1875 L 232.914062 206.1875 C 232.421875 206.1875 232.023438 205.792969 232.023438 205.300781 L 232.023438 201.871094 C 232.023438 201.382812 232.421875 200.988281 232.914062 200.988281 L 236.339844 200.988281 C 236.828125 200.988281 237.226562 201.382812 237.226562 201.871094 Z M 237.226562 173.113281 C 237.226562 173.605469 236.828125 174 236.339844 174 L 232.914062 174 C 232.421875 174 232.023438 173.605469 232.023438 173.113281 L 232.023438 169.683594 C 232.023438 169.195312 232.421875 168.800781 232.914062 168.800781 L 236.339844 168.800781 C 236.828125 168.800781 237.226562 169.195312 237.226562 169.683594 Z M 247.628906 205.300781 C 247.628906 205.792969 247.234375 206.1875 246.746094 206.1875 L 243.316406 206.1875 C 242.824219 206.1875 242.425781 205.792969 242.425781 205.300781 L 242.425781 201.871094 C 242.425781 201.382812 242.824219 200.988281 243.316406 200.988281 L 246.746094 200.988281 C 247.234375 200.988281 247.628906 201.382812 247.628906 201.871094 Z M 247.628906 173.113281 C 247.628906 173.605469 247.234375 174 246.746094 174 L 243.316406 174 C 242.824219 174 242.425781 173.605469 242.425781 173.113281 L 242.425781 169.683594 C 242.425781 169.195312 242.824219 168.800781 243.316406 168.800781 L 246.746094 168.800781 C 247.234375 168.800781 247.628906 169.195312 247.628906 169.683594 Z M 258.03125 205.300781 C 258.03125 205.792969 257.636719 206.1875 257.148438 206.1875 L 253.71875 206.1875 C 253.226562 206.1875 252.832031 205.792969 252.832031 205.300781 L 252.832031 201.871094 C 252.832031 201.382812 253.226562 200.988281 253.71875 200.988281 L 257.148438 200.988281 C 257.636719 200.988281 258.03125 201.382812 258.03125 201.871094 Z M 258.03125 173.113281 C 258.03125 173.605469 257.636719 174 257.148438 174 L 253.71875 174 C 253.226562 174 252.832031 173.605469 252.832031 173.113281 L 252.832031 169.683594 C 252.832031 169.195312 253.226562 168.800781 253.71875 168.800781 L 257.148438 168.800781 C 257.636719 168.800781 258.03125 169.195312 258.03125 169.683594 Z M 258.03125 173.113281 " fill-opacity="1" fill-rule="nonzero"/></g></svg>