<svg xmlns="http://www.w3.org/2000/svg" xmlns:xlink="http://www.w3.org/1999/xlink" width="500" zoomAndPan="magnify" viewBox="0 0 375 374.999991" height="500" preserveAspectRatio="xMidYMid meet" version="1.0"><defs><clipPath id="cfb6a482cf"><path d="M 126.128906 130.816406 L 240 130.816406 L 240 244.066406 L 126.128906 244.066406 Z M 126.128906 130.816406 " clip-rule="nonzero"/></clipPath></defs><path fill="#c1ff72" d="M 229.210938 220.234375 C 229.210938 220.234375 233.070312 229.363281 239.625 229.089844 C 246.183594 228.792969 248.730469 226.441406 248.730469 226.441406 L 246.726562 241.632812 C 246.726562 241.632812 227.207031 242.179688 225.867188 224.511719 C 225.621094 221.148438 229.210938 220.234375 229.210938 220.234375 Z M 229.210938 220.234375 " fill-opacity="1" fill-rule="nonzero"/><path fill="#c1ff72" d="M 221.886719 187.5 C 221.886719 188.773438 221.824219 190.046875 221.699219 191.316406 C 221.574219 192.585938 221.386719 193.847656 221.136719 195.097656 C 220.886719 196.347656 220.578125 197.582031 220.207031 198.804688 C 219.839844 200.023438 219.410156 201.222656 218.921875 202.402344 C 218.433594 203.582031 217.886719 204.734375 217.289062 205.855469 C 216.6875 206.980469 216.03125 208.074219 215.324219 209.136719 C 214.613281 210.195312 213.855469 211.21875 213.046875 212.203125 C 212.238281 213.191406 211.382812 214.136719 210.480469 215.035156 C 209.578125 215.9375 208.632812 216.792969 207.648438 217.601562 C 206.660156 218.414062 205.636719 219.171875 204.578125 219.878906 C 203.515625 220.589844 202.425781 221.242188 201.300781 221.84375 C 200.175781 222.445312 199.023438 222.992188 197.84375 223.480469 C 196.667969 223.964844 195.46875 224.394531 194.246094 224.765625 C 193.027344 225.136719 191.789062 225.445312 190.539062 225.695312 C 189.289062 225.945312 188.027344 226.128906 186.757812 226.253906 C 185.488281 226.378906 184.21875 226.441406 182.941406 226.441406 C 181.667969 226.441406 180.394531 226.378906 179.125 226.253906 C 177.855469 226.128906 176.59375 225.945312 175.34375 225.695312 C 174.09375 225.445312 172.859375 225.136719 171.636719 224.765625 C 170.417969 224.394531 169.21875 223.964844 168.039062 223.480469 C 166.859375 222.992188 165.707031 222.445312 164.585938 221.84375 C 163.460938 221.242188 162.367188 220.589844 161.304688 219.878906 C 160.246094 219.171875 159.222656 218.414062 158.238281 217.601562 C 157.25 216.792969 156.304688 215.9375 155.40625 215.035156 C 154.503906 214.136719 153.648438 213.191406 152.839844 212.203125 C 152.027344 211.21875 151.269531 210.195312 150.5625 209.136719 C 149.851562 208.074219 149.199219 206.980469 148.597656 205.855469 C 147.996094 204.734375 147.449219 203.582031 146.960938 202.402344 C 146.472656 201.222656 146.046875 200.023438 145.675781 198.804688 C 145.304688 197.582031 144.996094 196.347656 144.746094 195.097656 C 144.496094 193.847656 144.3125 192.585938 144.1875 191.316406 C 144.0625 190.046875 144 188.773438 144 187.5 C 144 186.222656 144.0625 184.953125 144.1875 183.683594 C 144.3125 182.414062 144.496094 181.152344 144.746094 179.902344 C 144.996094 178.652344 145.304688 177.414062 145.675781 176.195312 C 146.046875 174.972656 146.472656 173.773438 146.960938 172.597656 C 147.449219 171.417969 147.996094 170.265625 148.597656 169.140625 C 149.199219 168.015625 149.851562 166.925781 150.5625 165.863281 C 151.269531 164.804688 152.027344 163.78125 152.839844 162.792969 C 153.648438 161.808594 154.503906 160.863281 155.40625 159.960938 C 156.304688 159.058594 157.25 158.203125 158.238281 157.394531 C 159.222656 156.585938 160.246094 155.828125 161.304688 155.117188 C 162.367188 154.410156 163.460938 153.753906 164.585938 153.152344 C 165.707031 152.554688 166.859375 152.007812 168.039062 151.519531 C 169.21875 151.03125 170.417969 150.601562 171.636719 150.234375 C 172.859375 149.863281 174.09375 149.554688 175.34375 149.304688 C 176.59375 149.054688 177.855469 148.867188 179.125 148.742188 C 180.394531 148.617188 181.667969 148.554688 182.941406 148.554688 C 184.21875 148.554688 185.488281 148.617188 186.757812 148.742188 C 188.027344 148.867188 189.289062 149.054688 190.539062 149.304688 C 191.789062 149.554688 193.027344 149.863281 194.246094 150.234375 C 195.46875 150.601562 196.667969 151.03125 197.84375 151.519531 C 199.023438 152.007812 200.175781 152.554688 201.300781 153.152344 C 202.425781 153.753906 203.515625 154.410156 204.578125 155.117188 C 205.636719 155.828125 206.660156 156.585938 207.648438 157.394531 C 208.632812 158.203125 209.578125 159.058594 210.480469 159.960938 C 211.382812 160.863281 212.238281 161.808594 213.046875 162.792969 C 213.855469 163.78125 214.613281 164.804688 215.324219 165.863281 C 216.03125 166.925781 216.6875 168.015625 217.289062 169.140625 C 217.886719 170.265625 218.433594 171.417969 218.921875 172.597656 C 219.410156 173.773438 219.839844 174.972656 220.207031 176.195312 C 220.578125 177.414062 220.886719 178.652344 221.136719 179.902344 C 221.386719 181.152344 221.574219 182.414062 221.699219 183.683594 C 221.824219 184.953125 221.886719 186.222656 221.886719 187.5 Z M 221.886719 187.5 " fill-opacity="1" fill-rule="nonzero"/><g clip-path="url(#cfb6a482cf)"><path fill="#7ed957" d="M 182.941406 130.816406 C 151.644531 130.816406 126.257812 156.199219 126.257812 187.5 C 126.257812 218.796875 151.644531 244.183594 182.941406 244.183594 C 214.242188 244.183594 239.625 218.796875 239.625 187.5 C 239.625 156.199219 214.242188 130.816406 182.941406 130.816406 Z M 182.941406 140.886719 C 191.527344 140.886719 198.457031 147.839844 198.457031 156.398438 C 198.457031 164.960938 191.503906 171.910156 182.941406 171.910156 C 174.382812 171.910156 167.429688 164.960938 167.429688 156.398438 C 167.429688 147.839844 174.355469 140.886719 182.941406 140.886719 Z M 193.0625 185.691406 C 193.0625 186.757812 192.21875 187.597656 191.15625 187.597656 C 190.09375 187.597656 189.25 186.757812 189.25 185.691406 C 189.25 184.628906 190.09375 183.789062 191.15625 183.789062 C 192.21875 183.789062 193.0625 184.628906 193.0625 185.691406 Z M 184.847656 177.453125 C 184.847656 178.519531 184.007812 179.359375 182.941406 179.359375 C 181.878906 179.359375 181.035156 178.519531 181.035156 177.453125 C 181.035156 176.390625 181.878906 175.550781 182.941406 175.550781 C 183.980469 175.550781 184.847656 176.414062 184.847656 177.453125 Z M 176.609375 185.691406 C 176.609375 186.757812 175.765625 187.597656 174.703125 187.597656 C 173.640625 187.597656 172.796875 186.757812 172.796875 185.691406 C 172.796875 184.628906 173.640625 183.789062 174.703125 183.789062 C 175.765625 183.789062 176.609375 184.628906 176.609375 185.691406 Z M 137.960938 178.765625 C 137.960938 170.203125 144.914062 163.253906 153.472656 163.253906 C 162.035156 163.253906 168.988281 170.203125 168.988281 178.765625 C 168.988281 187.328125 162.035156 194.277344 153.472656 194.277344 C 144.914062 194.277344 137.960938 187.351562 137.960938 178.765625 Z M 164.285156 227.953125 C 155.726562 227.953125 148.773438 221 148.773438 212.4375 C 148.773438 203.878906 155.726562 196.925781 164.285156 196.925781 C 172.871094 196.925781 179.800781 203.878906 179.800781 212.4375 C 179.800781 221 172.847656 227.953125 164.285156 227.953125 Z M 178.613281 185.691406 C 178.613281 183.292969 180.542969 181.363281 182.941406 181.363281 C 185.34375 181.363281 187.273438 183.292969 187.273438 185.691406 C 187.273438 188.09375 185.34375 190.023438 182.941406 190.023438 C 180.542969 190.023438 178.613281 188.070312 178.613281 185.691406 Z M 182.941406 195.8125 C 181.878906 195.8125 181.035156 194.972656 181.035156 193.90625 C 181.035156 192.84375 181.878906 192.003906 182.941406 192.003906 C 184.007812 192.003906 184.847656 192.84375 184.847656 193.90625 C 184.847656 194.972656 183.980469 195.8125 182.941406 195.8125 Z M 201.300781 227.953125 C 192.738281 227.953125 185.789062 221 185.789062 212.4375 C 185.789062 203.878906 192.738281 196.925781 201.300781 196.925781 C 209.886719 196.925781 216.8125 203.878906 216.8125 212.4375 C 216.839844 221 209.886719 227.953125 201.300781 227.953125 Z M 212.386719 194.304688 C 203.824219 194.304688 196.871094 187.351562 196.871094 178.789062 C 196.871094 170.230469 203.824219 163.253906 212.386719 163.253906 C 220.96875 163.253906 227.898438 170.203125 227.898438 178.765625 C 227.898438 187.328125 220.96875 194.304688 212.386719 194.304688 Z M 212.386719 194.304688 " fill-opacity="1" fill-rule="nonzero"/></g><path fill="#7ed957" d="M 183.3125 239.679688 C 154.539062 239.679688 131.109375 216.273438 131.109375 187.476562 C 131.109375 158.699219 154.511719 135.269531 183.3125 135.269531 C 212.085938 135.269531 235.519531 158.675781 235.519531 187.476562 C 235.492188 216.273438 212.085938 239.679688 183.3125 239.679688 Z M 183.3125 137.769531 C 155.898438 137.769531 133.582031 160.085938 133.582031 187.5 C 133.582031 214.914062 155.898438 237.230469 183.3125 237.230469 C 210.726562 237.230469 233.042969 214.914062 233.042969 187.5 C 233.019531 160.085938 210.726562 137.769531 183.3125 137.769531 Z M 183.3125 137.769531 " fill-opacity="1" fill-rule="nonzero"/></svg>