<svg xmlns="http://www.w3.org/2000/svg" xmlns:xlink="http://www.w3.org/1999/xlink" width="500" zoomAndPan="magnify" viewBox="0 0 375 374.999991" height="500" preserveAspectRatio="xMidYMid meet" version="1.0"><defs><clipPath id="984d0ad1a6"><path d="M 0 131.015625 L 9 131.015625 L 9 244 L 0 244 Z M 0 131.015625 " clip-rule="nonzero"/></clipPath><clipPath id="007fd0d0d2"><path d="M 14 131.015625 L 19 131.015625 L 19 244 L 14 244 Z M 14 131.015625 " clip-rule="nonzero"/></clipPath><clipPath id="344d4a766e"><path d="M 28 131.015625 L 42 131.015625 L 42 244 L 28 244 Z M 28 131.015625 " clip-rule="nonzero"/></clipPath><clipPath id="625890217e"><path d="M 52 131.015625 L 71 131.015625 L 71 244 L 52 244 Z M 52 131.015625 " clip-rule="nonzero"/></clipPath><clipPath id="6a3bf655ae"><path d="M 76 131.015625 L 81 131.015625 L 81 244 L 76 244 Z M 76 131.015625 " clip-rule="nonzero"/></clipPath><clipPath id="2d9ed0d679"><path d="M 85 131.015625 L 100 131.015625 L 100 244 L 85 244 Z M 85 131.015625 " clip-rule="nonzero"/></clipPath><clipPath id="d8a40cdf44"><path d="M 104 131.015625 L 109 131.015625 L 109 244 L 104 244 Z M 104 131.015625 " clip-rule="nonzero"/></clipPath><clipPath id="241569a9c0"><path d="M 114 131.015625 L 124 131.015625 L 124 244 L 114 244 Z M 114 131.015625 " clip-rule="nonzero"/></clipPath><clipPath id="814e2801a5"><path d="M 133 131.015625 L 147 131.015625 L 147 244 L 133 244 Z M 133 131.015625 " clip-rule="nonzero"/></clipPath><clipPath id="9f2d9b59e6"><path d="M 157 131.015625 L 161 131.015625 L 161 244 L 157 244 Z M 157 131.015625 " clip-rule="nonzero"/></clipPath><clipPath id="c4310dbd5b"><path d="M 176 131.015625 L 181 131.015625 L 181 244 L 176 244 Z M 176 131.015625 " clip-rule="nonzero"/></clipPath><clipPath id="9ad1e68d82"><path d="M 185 131.015625 L 195 131.015625 L 195 244 L 185 244 Z M 185 131.015625 " clip-rule="nonzero"/></clipPath><clipPath id="2e6d30da62"><path d="M 209 131.015625 L 223 131.015625 L 223 244 L 209 244 Z M 209 131.015625 " clip-rule="nonzero"/></clipPath><clipPath id="5851e75eb5"><path d="M 238 131.015625 L 242 131.015625 L 242 244 L 238 244 Z M 238 131.015625 " clip-rule="nonzero"/></clipPath><clipPath id="1d4d979be1"><path d="M 247 131.015625 L 257 131.015625 L 257 244 L 247 244 Z M 247 131.015625 " clip-rule="nonzero"/></clipPath><clipPath id="199d157a26"><path d="M 261 131.015625 L 266 131.015625 L 266 244 L 261 244 Z M 261 131.015625 " clip-rule="nonzero"/></clipPath><clipPath id="8a38247428"><path d="M 271 131.015625 L 281 131.015625 L 281 244 L 271 244 Z M 271 131.015625 " clip-rule="nonzero"/></clipPath><clipPath id="d62a59beac"><path d="M 285 131.015625 L 299 131.015625 L 299 244 L 285 244 Z M 285 131.015625 " clip-rule="nonzero"/></clipPath><clipPath id="664a6ffbe6"><path d="M 314 131.015625 L 323 131.015625 L 323 244 L 314 244 Z M 314 131.015625 " clip-rule="nonzero"/></clipPath><clipPath id="4db9e977b8"><path d="M 337 131.015625 L 352 131.015625 L 352 244 L 337 244 Z M 337 131.015625 " clip-rule="nonzero"/></clipPath><clipPath id="de37c9eb4c"><path d="M 356 131.015625 L 361 131.015625 L 361 244 L 356 244 Z M 356 131.015625 " clip-rule="nonzero"/></clipPath><clipPath id="522f1ef522"><path d="M 366 131.015625 L 375 131.015625 L 375 244 L 366 244 Z M 366 131.015625 " clip-rule="nonzero"/></clipPath></defs><g clip-path="url(#984d0ad1a6)"><path fill="#000000" d="M 0.09375 131.375 C 3.007812 131.375 5.917969 131.375 8.828125 131.375 C 8.828125 168.804688 8.828125 206.246094 8.828125 243.683594 C 5.890625 243.683594 2.945312 243.683594 0.00390625 243.683594 C 0.00390625 206.292969 0.00390625 168.898438 0.00390625 131.507812 C -0.00390625 131.445312 -0.0117188 131.382812 0.09375 131.375 Z M 0.09375 131.375 " fill-opacity="1" fill-rule="evenodd"/></g><g clip-path="url(#007fd0d0d2)"><path fill="#000000" d="M 14.347656 131.375 C 15.570312 131.398438 17.039062 131.3125 18.117188 131.417969 C 18.117188 168.804688 18.117188 206.210938 18.117188 243.589844 C 17.21875 243.769531 15.300781 243.683594 14.253906 243.636719 C 14.253906 206.257812 14.253906 168.886719 14.253906 131.507812 C 14.246094 131.445312 14.238281 131.382812 14.347656 131.375 Z M 14.347656 131.375 " fill-opacity="1" fill-rule="evenodd"/></g><g clip-path="url(#344d4a766e)"><path fill="#000000" d="M 28.6875 131.375 C 33.101562 131.375 37.511719 131.375 41.925781 131.375 C 41.925781 168.804688 41.925781 206.246094 41.925781 243.683594 C 37.480469 243.683594 33.039062 243.683594 28.59375 243.683594 C 28.59375 206.292969 28.59375 168.898438 28.59375 131.507812 C 28.589844 131.445312 28.582031 131.382812 28.6875 131.375 Z M 28.6875 131.375 " fill-opacity="1" fill-rule="evenodd"/></g><g clip-path="url(#625890217e)"><path fill="#000000" d="M 52.5 131.375 C 58.503906 131.375 64.511719 131.375 70.515625 131.375 C 70.515625 168.804688 70.515625 206.246094 70.515625 243.683594 C 64.480469 243.683594 58.441406 243.683594 52.40625 243.683594 C 52.40625 206.292969 52.40625 168.898438 52.40625 131.507812 C 52.398438 131.445312 52.390625 131.382812 52.5 131.375 Z M 52.5 131.375 " fill-opacity="1" fill-rule="evenodd"/></g><g clip-path="url(#6a3bf655ae)"><path fill="#000000" d="M 76.402344 131.375 C 77.59375 131.398438 79.035156 131.3125 80.078125 131.417969 C 80.078125 168.796875 80.078125 206.167969 80.078125 243.546875 C 80.078125 243.589844 80.078125 243.636719 80.078125 243.683594 C 78.851562 243.648438 77.382812 243.738281 76.308594 243.636719 C 76.308594 206.257812 76.308594 168.886719 76.308594 131.507812 C 76.304688 131.445312 76.292969 131.382812 76.402344 131.375 Z M 76.402344 131.375 " fill-opacity="1" fill-rule="evenodd"/></g><g clip-path="url(#2d9ed0d679)"><path fill="#000000" d="M 85.597656 131.375 C 90.128906 131.375 94.667969 131.375 99.199219 131.375 C 99.199219 168.804688 99.199219 206.246094 99.199219 243.683594 C 94.636719 243.683594 90.070312 243.683594 85.503906 243.683594 C 85.503906 206.292969 85.503906 168.898438 85.503906 131.507812 C 85.496094 131.445312 85.488281 131.382812 85.597656 131.375 Z M 85.597656 131.375 " fill-opacity="1" fill-rule="evenodd"/></g><g clip-path="url(#d8a40cdf44)"><path fill="#000000" d="M 104.992188 131.375 C 106.1875 131.398438 107.628906 131.3125 108.671875 131.417969 C 108.671875 168.796875 108.671875 206.167969 108.671875 243.546875 C 108.671875 243.589844 108.671875 243.636719 108.671875 243.683594 C 107.445312 243.648438 105.976562 243.738281 104.902344 243.636719 C 104.902344 206.257812 104.902344 168.886719 104.902344 131.507812 C 104.894531 131.445312 104.886719 131.382812 104.996094 131.375 Z M 104.992188 131.375 " fill-opacity="1" fill-rule="evenodd"/></g><g clip-path="url(#241569a9c0)"><path fill="#000000" d="M 114.1875 131.375 C 117.128906 131.375 120.070312 131.375 123.011719 131.375 C 123.011719 168.804688 123.011719 206.246094 123.011719 243.683594 C 120.101562 243.683594 117.1875 243.683594 114.277344 243.683594 C 114.171875 243.6875 114.117188 243.671875 114.097656 243.636719 C 114.097656 206.257812 114.097656 168.886719 114.097656 131.507812 C 114.085938 131.445312 114.078125 131.382812 114.1875 131.375 Z M 114.1875 131.375 " fill-opacity="1" fill-rule="evenodd"/></g><g clip-path="url(#814e2801a5)"><path fill="#000000" d="M 133.585938 131.375 C 137.90625 131.375 142.226562 131.375 146.546875 131.375 C 146.546875 168.804688 146.546875 206.246094 146.546875 243.683594 C 142.257812 243.683594 137.964844 243.683594 133.675781 243.683594 C 133.570312 243.6875 133.511719 243.671875 133.492188 243.636719 C 133.492188 206.257812 133.492188 168.886719 133.492188 131.507812 C 133.484375 131.445312 133.476562 131.382812 133.585938 131.375 Z M 133.585938 131.375 " fill-opacity="1" fill-rule="evenodd"/></g><g clip-path="url(#9f2d9b59e6)"><path fill="#000000" d="M 157.121094 131.375 C 158.34375 131.398438 159.816406 131.3125 160.890625 131.417969 C 160.890625 168.804688 160.890625 206.210938 160.890625 243.589844 C 159.996094 243.769531 158.074219 243.683594 157.027344 243.636719 C 157.027344 206.257812 157.027344 168.886719 157.027344 131.507812 C 157.019531 131.445312 157.011719 131.382812 157.121094 131.375 Z M 157.121094 131.375 " fill-opacity="1" fill-rule="evenodd"/></g><g clip-path="url(#c4310dbd5b)"><path fill="#000000" d="M 176.242188 131.375 C 177.558594 131.375 178.878906 131.375 180.195312 131.375 C 180.195312 168.765625 180.195312 206.15625 180.195312 243.546875 C 180.195312 243.589844 180.195312 243.636719 180.195312 243.683594 C 178.847656 243.683594 177.5 243.683594 176.152344 243.683594 C 176.152344 206.292969 176.152344 168.898438 176.152344 131.507812 C 176.140625 131.445312 176.136719 131.382812 176.242188 131.375 Z M 176.242188 131.375 " fill-opacity="1" fill-rule="evenodd"/></g><g clip-path="url(#9ad1e68d82)"><path fill="#000000" d="M 185.710938 131.375 C 188.652344 131.375 191.59375 131.375 194.535156 131.375 C 194.535156 168.804688 194.535156 206.246094 194.535156 243.683594 C 191.625 243.683594 188.714844 243.683594 185.804688 243.683594 C 185.699219 243.6875 185.640625 243.671875 185.621094 243.636719 C 185.621094 206.257812 185.621094 168.886719 185.621094 131.507812 C 185.613281 131.445312 185.605469 131.382812 185.710938 131.375 Z M 185.710938 131.375 " fill-opacity="1" fill-rule="evenodd"/></g><g clip-path="url(#2e6d30da62)"><path fill="#000000" d="M 209.613281 131.375 C 214.027344 131.375 218.441406 131.375 222.855469 131.375 C 222.855469 168.804688 222.855469 206.246094 222.855469 243.683594 C 218.410156 243.683594 213.964844 243.683594 209.523438 243.683594 C 209.523438 206.292969 209.523438 168.898438 209.523438 131.507812 C 209.515625 131.445312 209.507812 131.382812 209.613281 131.375 Z M 209.613281 131.375 " fill-opacity="1" fill-rule="evenodd"/></g><g clip-path="url(#5851e75eb5)"><path fill="#000000" d="M 238.207031 131.375 C 239.402344 131.398438 240.839844 131.3125 241.882812 131.417969 C 241.882812 168.796875 241.882812 206.167969 241.882812 243.546875 C 241.882812 243.589844 241.882812 243.636719 241.882812 243.683594 C 240.65625 243.648438 239.1875 243.738281 238.113281 243.636719 C 238.113281 206.257812 238.113281 168.886719 238.113281 131.507812 C 238.109375 131.445312 238.101562 131.382812 238.207031 131.375 Z M 238.207031 131.375 " fill-opacity="1" fill-rule="evenodd"/></g><g clip-path="url(#1d4d979be1)"><path fill="#000000" d="M 247.769531 131.375 C 250.589844 131.375 253.40625 131.375 256.226562 131.375 C 256.226562 168.804688 256.226562 206.246094 256.226562 243.683594 C 253.375 243.683594 250.527344 243.683594 247.675781 243.683594 C 247.675781 206.292969 247.675781 168.898438 247.675781 131.507812 C 247.667969 131.445312 247.660156 131.382812 247.769531 131.375 Z M 247.769531 131.375 " fill-opacity="1" fill-rule="evenodd"/></g><g clip-path="url(#199d157a26)"><path fill="#000000" d="M 262.019531 131.375 C 263.246094 131.398438 264.714844 131.3125 265.789062 131.417969 C 265.789062 168.804688 265.789062 206.210938 265.789062 243.589844 C 264.894531 243.769531 262.972656 243.683594 261.929688 243.636719 C 261.929688 206.257812 261.929688 168.886719 261.929688 131.507812 C 261.917969 131.445312 261.914062 131.382812 262.019531 131.375 Z M 262.019531 131.375 " fill-opacity="1" fill-rule="evenodd"/></g><g clip-path="url(#8a38247428)"><path fill="#000000" d="M 271.304688 131.375 C 274.214844 131.375 277.128906 131.375 280.039062 131.375 C 280.039062 168.804688 280.039062 206.246094 280.039062 243.683594 C 277.097656 243.683594 274.15625 243.683594 271.214844 243.683594 C 271.214844 206.292969 271.214844 168.898438 271.214844 131.507812 C 271.207031 131.445312 271.195312 131.382812 271.304688 131.375 Z M 271.304688 131.375 " fill-opacity="1" fill-rule="evenodd"/></g><g clip-path="url(#d62a59beac)"><path fill="#000000" d="M 285.554688 131.375 C 289.964844 131.375 294.378906 131.375 298.792969 131.375 C 298.792969 168.804688 298.792969 206.246094 298.792969 243.683594 C 294.347656 243.683594 289.90625 243.683594 285.460938 243.683594 C 285.460938 206.292969 285.460938 168.898438 285.460938 131.507812 C 285.453125 131.445312 285.445312 131.382812 285.554688 131.375 Z M 285.554688 131.375 " fill-opacity="1" fill-rule="evenodd"/></g><g clip-path="url(#664a6ffbe6)"><path fill="#000000" d="M 314.144531 131.375 C 317.085938 131.375 320.027344 131.375 322.96875 131.375 C 322.96875 168.804688 322.96875 206.246094 322.96875 243.683594 C 320.054688 243.683594 317.148438 243.683594 314.234375 243.683594 C 314.128906 243.6875 314.070312 243.671875 314.050781 243.636719 C 314.050781 206.257812 314.050781 168.886719 314.050781 131.507812 C 314.042969 131.445312 314.039062 131.382812 314.144531 131.375 Z M 314.144531 131.375 " fill-opacity="1" fill-rule="evenodd"/></g><g clip-path="url(#4db9e977b8)"><path fill="#000000" d="M 338.050781 131.375 C 342.582031 131.375 347.121094 131.375 351.652344 131.375 C 351.652344 168.804688 351.652344 206.246094 351.652344 243.683594 C 347.089844 243.683594 342.523438 243.683594 337.957031 243.683594 C 337.957031 206.292969 337.957031 168.898438 337.957031 131.507812 C 337.949219 131.445312 337.941406 131.382812 338.050781 131.375 Z M 338.050781 131.375 " fill-opacity="1" fill-rule="evenodd"/></g><g clip-path="url(#de37c9eb4c)"><path fill="#000000" d="M 357.078125 131.375 C 358.304688 131.398438 359.773438 131.3125 360.847656 131.417969 C 360.847656 168.804688 360.847656 206.210938 360.847656 243.589844 C 359.953125 243.769531 358.03125 243.683594 356.984375 243.636719 C 356.984375 206.257812 356.984375 168.886719 356.984375 131.507812 C 356.976562 131.445312 356.96875 131.382812 357.078125 131.375 Z M 357.078125 131.375 " fill-opacity="1" fill-rule="evenodd"/></g><g clip-path="url(#522f1ef522)"><path fill="#000000" d="M 366.640625 131.375 C 369.460938 131.375 372.277344 131.375 375.101562 131.375 C 375.101562 168.804688 375.101562 206.246094 375.101562 243.683594 C 372.25 243.683594 369.398438 243.683594 366.546875 243.683594 C 366.546875 206.292969 366.546875 168.898438 366.546875 131.507812 C 366.539062 131.445312 366.53125 131.382812 366.640625 131.375 Z M 366.640625 131.375 " fill-opacity="1" fill-rule="evenodd"/></g></svg>