<svg xmlns="http://www.w3.org/2000/svg" xmlns:xlink="http://www.w3.org/1999/xlink" width="500" zoomAndPan="magnify" viewBox="0 0 375 374.999991" height="500" preserveAspectRatio="xMidYMid meet" version="1.0"><defs><g/><clipPath id="07b1d40a75"><path d="M 62.261719 103.433594 L 191 103.433594 L 191 271.433594 L 62.261719 271.433594 Z M 62.261719 103.433594 " clip-rule="nonzero"/></clipPath><clipPath id="75ac99cd3d"><path d="M 76 149 L 312.761719 149 L 312.761719 225 L 76 225 Z M 76 149 " clip-rule="nonzero"/></clipPath></defs><g clip-path="url(#07b1d40a75)"><path fill="#b4d429" d="M 190.992188 231.679688 L 185.386719 237.277344 L 154.453125 268.21875 C 152.308594 270.363281 149.457031 271.542969 146.421875 271.542969 C 143.386719 271.542969 140.535156 270.363281 138.390625 268.21875 L 95.175781 225 L 65.695312 195.519531 C 63.550781 193.375 62.367188 190.523438 62.367188 187.488281 C 62.367188 184.453125 63.550781 181.601562 65.695312 179.457031 L 95.179688 149.972656 L 138.390625 106.753906 C 140.535156 104.609375 143.386719 103.433594 146.421875 103.433594 C 149.457031 103.433594 152.308594 104.609375 154.453125 106.753906 L 190.988281 143.289062 L 181.535156 143.289062 L 149.730469 111.484375 C 148.847656 110.597656 147.671875 110.117188 146.421875 110.117188 C 145.171875 110.117188 144.003906 110.597656 143.113281 111.484375 L 70.417969 184.179688 C 69.535156 185.0625 69.046875 186.238281 69.046875 187.488281 C 69.046875 188.738281 69.535156 189.90625 70.417969 190.792969 L 104.621094 225 L 143.113281 263.492188 C 144.003906 264.375 145.171875 264.859375 146.421875 264.859375 C 147.671875 264.859375 148.847656 264.371094 149.726562 263.492188 L 175.941406 237.277344 L 181.542969 231.679688 Z M 190.992188 231.679688 " fill-opacity="1" fill-rule="nonzero"/></g><g clip-path="url(#75ac99cd3d)"><path fill="#b4d429" d="M 304.613281 149.972656 L 114.074219 149.972656 L 107.773438 156.269531 L 112.707031 156.269531 C 113.523438 156.269531 114.183594 156.933594 114.183594 157.75 L 114.183594 163.476562 C 114.183594 164.296875 113.523438 164.957031 112.707031 164.957031 L 106.980469 164.957031 C 106.164062 164.957031 105.496094 164.296875 105.496094 163.476562 L 105.496094 158.550781 L 76.585938 187.460938 L 76.585938 187.515625 L 105.496094 216.425781 L 105.496094 211.496094 C 105.496094 210.679688 106.164062 210.019531 106.980469 210.019531 L 112.707031 210.019531 C 113.523438 210.019531 114.183594 210.679688 114.183594 211.496094 L 114.183594 217.222656 C 114.183594 218.042969 113.523438 218.707031 112.707031 218.707031 L 107.773438 218.707031 L 114.070312 225 L 304.617188 225 C 309.046875 225 312.632812 221.410156 312.632812 216.980469 L 312.632812 157.988281 C 312.632812 153.558594 309.042969 149.972656 304.613281 149.972656 Z M 131.554688 217.222656 C 131.554688 218.042969 130.894531 218.707031 130.078125 218.707031 L 124.351562 218.707031 C 123.535156 218.707031 122.867188 218.042969 122.867188 217.222656 L 122.867188 211.496094 C 122.867188 210.679688 123.535156 210.019531 124.351562 210.019531 L 130.078125 210.019531 C 130.894531 210.019531 131.554688 210.679688 131.554688 211.496094 Z M 131.554688 163.476562 C 131.554688 164.296875 130.894531 164.957031 130.078125 164.957031 L 124.351562 164.957031 C 123.535156 164.957031 122.867188 164.296875 122.867188 163.476562 L 122.867188 157.75 C 122.867188 156.933594 123.535156 156.269531 124.351562 156.269531 L 130.078125 156.269531 C 130.894531 156.269531 131.554688 156.933594 131.554688 157.75 Z M 148.925781 217.222656 C 148.925781 218.042969 148.265625 218.707031 147.449219 218.707031 L 141.722656 218.707031 C 140.902344 218.707031 140.242188 218.042969 140.242188 217.222656 L 140.242188 211.496094 C 140.242188 210.679688 140.902344 210.019531 141.722656 210.019531 L 147.449219 210.019531 C 148.265625 210.019531 148.925781 210.679688 148.925781 211.496094 Z M 148.925781 163.476562 C 148.925781 164.296875 148.265625 164.957031 147.449219 164.957031 L 141.722656 164.957031 C 140.902344 164.957031 140.242188 164.296875 140.242188 163.476562 L 140.242188 157.75 C 140.242188 156.933594 140.902344 156.269531 141.722656 156.269531 L 147.449219 156.269531 C 148.265625 156.269531 148.925781 156.933594 148.925781 157.75 Z M 166.300781 217.222656 C 166.300781 218.042969 165.636719 218.707031 164.820312 218.707031 L 159.097656 218.707031 C 158.273438 218.707031 157.613281 218.042969 157.613281 217.222656 L 157.613281 211.496094 C 157.613281 210.679688 158.273438 210.019531 159.097656 210.019531 L 164.820312 210.019531 C 165.636719 210.019531 166.300781 210.679688 166.300781 211.496094 Z M 166.300781 163.476562 C 166.300781 164.296875 165.636719 164.957031 164.820312 164.957031 L 159.097656 164.957031 C 158.273438 164.957031 157.613281 164.296875 157.613281 163.476562 L 157.613281 157.75 C 157.613281 156.933594 158.273438 156.269531 159.097656 156.269531 L 164.820312 156.269531 C 165.636719 156.269531 166.300781 156.933594 166.300781 157.75 Z M 183.671875 217.222656 C 183.671875 218.042969 183.011719 218.707031 182.195312 218.707031 L 176.46875 218.707031 C 175.652344 218.707031 174.984375 218.042969 174.984375 217.222656 L 174.984375 211.496094 C 174.984375 210.679688 175.652344 210.019531 176.46875 210.019531 L 182.195312 210.019531 C 183.011719 210.019531 183.671875 210.679688 183.671875 211.496094 Z M 183.671875 163.476562 C 183.671875 164.296875 183.011719 164.957031 182.195312 164.957031 L 176.46875 164.957031 C 175.652344 164.957031 174.984375 164.296875 174.984375 163.476562 L 174.984375 157.75 C 174.984375 156.933594 175.652344 156.269531 176.46875 156.269531 L 182.195312 156.269531 C 183.011719 156.269531 183.671875 156.933594 183.671875 157.75 Z M 209.730469 157.75 C 209.730469 156.933594 210.390625 156.269531 211.210938 156.269531 L 216.9375 156.269531 C 217.753906 156.269531 218.414062 156.933594 218.414062 157.75 L 218.414062 163.476562 C 218.414062 164.296875 217.753906 164.957031 216.9375 164.957031 L 211.210938 164.957031 C 210.390625 164.957031 209.730469 164.296875 209.730469 163.476562 Z M 199.566406 156.269531 C 200.382812 156.269531 201.042969 156.933594 201.042969 157.75 L 201.042969 163.476562 C 201.042969 164.296875 200.382812 164.957031 199.566406 164.957031 L 193.839844 164.957031 C 193.023438 164.957031 192.355469 164.296875 192.355469 163.476562 L 192.355469 157.75 C 192.355469 156.933594 193.023438 156.269531 193.839844 156.269531 Z M 193.839844 218.707031 C 193.023438 218.707031 192.355469 218.042969 192.355469 217.222656 L 192.355469 211.496094 C 192.355469 210.679688 193.023438 210.019531 193.839844 210.019531 L 199.566406 210.019531 C 200.382812 210.019531 201.042969 210.679688 201.042969 211.496094 L 201.042969 217.222656 C 201.042969 218.042969 200.382812 218.707031 199.566406 218.707031 Z M 218.414062 217.222656 C 218.414062 218.042969 217.753906 218.707031 216.9375 218.707031 L 211.214844 218.707031 C 210.390625 218.707031 209.730469 218.042969 209.730469 217.222656 L 209.730469 211.496094 C 209.730469 210.679688 210.390625 210.019531 211.214844 210.019531 L 216.9375 210.019531 C 217.753906 210.019531 218.414062 210.679688 218.414062 211.496094 Z M 235.789062 217.222656 C 235.789062 218.042969 235.125 218.707031 234.3125 218.707031 L 228.585938 218.707031 C 227.761719 218.707031 227.101562 218.042969 227.101562 217.222656 L 227.101562 211.496094 C 227.101562 210.679688 227.761719 210.019531 228.585938 210.019531 L 234.3125 210.019531 C 235.125 210.019531 235.789062 210.679688 235.789062 211.496094 Z M 235.789062 163.476562 C 235.789062 164.296875 235.125 164.957031 234.3125 164.957031 L 228.585938 164.957031 C 227.761719 164.957031 227.101562 164.296875 227.101562 163.476562 L 227.101562 157.75 C 227.101562 156.933594 227.761719 156.269531 228.585938 156.269531 L 234.3125 156.269531 C 235.125 156.269531 235.789062 156.933594 235.789062 157.75 Z M 253.160156 217.222656 C 253.160156 218.042969 252.5 218.707031 251.683594 218.707031 L 245.957031 218.707031 C 245.136719 218.707031 244.472656 218.042969 244.472656 217.222656 L 244.472656 211.496094 C 244.472656 210.679688 245.136719 210.019531 245.957031 210.019531 L 251.683594 210.019531 C 252.5 210.019531 253.160156 210.679688 253.160156 211.496094 Z M 253.160156 163.476562 C 253.160156 164.296875 252.5 164.957031 251.683594 164.957031 L 245.957031 164.957031 C 245.136719 164.957031 244.472656 164.296875 244.472656 163.476562 L 244.472656 157.75 C 244.472656 156.933594 245.136719 156.269531 245.957031 156.269531 L 251.683594 156.269531 C 252.5 156.269531 253.160156 156.933594 253.160156 157.75 Z M 270.53125 217.222656 C 270.53125 218.042969 269.871094 218.707031 269.054688 218.707031 L 263.328125 218.707031 C 262.507812 218.707031 261.84375 218.042969 261.84375 217.222656 L 261.84375 211.496094 C 261.84375 210.679688 262.507812 210.019531 263.328125 210.019531 L 269.054688 210.019531 C 269.871094 210.019531 270.53125 210.679688 270.53125 211.496094 Z M 270.53125 163.476562 C 270.53125 164.296875 269.871094 164.957031 269.054688 164.957031 L 263.328125 164.957031 C 262.507812 164.957031 261.84375 164.296875 261.84375 163.476562 L 261.84375 157.75 C 261.84375 156.933594 262.507812 156.269531 263.328125 156.269531 L 269.054688 156.269531 C 269.871094 156.269531 270.53125 156.933594 270.53125 157.75 Z M 287.90625 217.222656 C 287.90625 218.042969 287.242188 218.707031 286.425781 218.707031 L 280.703125 218.707031 C 279.878906 218.707031 279.21875 218.042969 279.21875 217.222656 L 279.21875 211.496094 C 279.21875 210.679688 279.878906 210.019531 280.703125 210.019531 L 286.425781 210.019531 C 287.242188 210.019531 287.90625 210.679688 287.90625 211.496094 Z M 287.90625 163.476562 C 287.90625 164.296875 287.242188 164.957031 286.425781 164.957031 L 280.703125 164.957031 C 279.878906 164.957031 279.21875 164.296875 279.21875 163.476562 L 279.21875 157.75 C 279.21875 156.933594 279.878906 156.269531 280.703125 156.269531 L 286.425781 156.269531 C 287.242188 156.269531 287.90625 156.933594 287.90625 157.75 Z M 305.277344 217.222656 C 305.277344 218.042969 304.617188 218.707031 303.800781 218.707031 L 298.074219 218.707031 C 297.253906 218.707031 296.589844 218.042969 296.589844 217.222656 L 296.589844 211.496094 C 296.589844 210.679688 297.253906 210.019531 298.074219 210.019531 L 303.800781 210.019531 C 304.617188 210.019531 305.277344 210.679688 305.277344 211.496094 Z M 305.277344 163.476562 C 305.277344 164.296875 304.617188 164.957031 303.800781 164.957031 L 298.074219 164.957031 C 297.253906 164.957031 296.589844 164.296875 296.589844 163.476562 L 296.589844 157.75 C 296.589844 156.933594 297.253906 156.269531 298.074219 156.269531 L 303.800781 156.269531 C 304.617188 156.269531 305.277344 156.933594 305.277344 157.75 Z M 305.277344 163.476562 " fill-opacity="1" fill-rule="nonzero"/></g><g fill="#000000" fill-opacity="1"><g transform="translate(97.401487, 200.249987)"><g><path d="M 15.542969 0.546875 C 20.59375 0.546875 25.015625 -1.996094 27.328125 -5.910156 L 22.667969 -8.613281 C 21.375 -6.226562 18.675781 -4.738281 15.542969 -4.738281 C 10.179688 -4.738281 6.65625 -8.457031 6.65625 -13.703125 C 6.65625 -18.988281 10.179688 -22.707031 15.542969 -22.707031 C 18.675781 -22.707031 21.335938 -21.21875 22.667969 -18.792969 L 27.328125 -21.492188 C 24.976562 -25.410156 20.554688 -27.953125 15.542969 -27.953125 C 7.242188 -27.953125 1.292969 -21.726562 1.292969 -13.703125 C 1.292969 -5.714844 7.242188 0.546875 15.542969 0.546875 Z M 15.542969 0.546875 "/></g></g></g><g fill="#000000" fill-opacity="1"><g transform="translate(125.817542, 200.249987)"><g><path d="M 2.542969 -27.40625 L 2.542969 0 L 7.949219 0 L 7.949219 -27.40625 Z M 2.542969 -27.40625 "/></g></g></g><g fill="#000000" fill-opacity="1"><g transform="translate(136.307219, 200.249987)"><g><path d="M 18.402344 -27.40625 L 18.402344 -10.6875 L 6.65625 -27.40625 L 2.542969 -27.40625 L 2.542969 0 L 7.949219 0 L 7.949219 -16.757812 L 19.691406 0 L 23.804688 0 L 23.804688 -27.40625 Z M 18.402344 -27.40625 "/></g></g></g><g fill="#000000" fill-opacity="1"><g transform="translate(162.648828, 200.249987)"><g><path d="M 7.949219 -5.167969 L 7.949219 -11.3125 L 18.320312 -11.3125 L 18.320312 -16.402344 L 7.949219 -16.402344 L 7.949219 -22.238281 L 19.300781 -22.238281 L 19.300781 -27.40625 L 2.542969 -27.40625 L 2.542969 0 L 19.496094 0 L 19.496094 -5.167969 Z M 7.949219 -5.167969 "/></g></g></g><g fill="#000000" fill-opacity="1"><g transform="translate(183.393337, 200.249987)"><g><path d="M 29.363281 -27.40625 L 23.804688 -27.40625 L 15.972656 -14.445312 L 8.105469 -27.40625 L 2.542969 -27.40625 L 2.542969 0 L 7.949219 0 L 7.949219 -17.734375 L 15.660156 -5.050781 L 16.285156 -5.050781 L 24 -17.773438 L 24 0 L 29.363281 0 Z M 29.363281 -27.40625 "/></g></g></g><g fill="#000000" fill-opacity="1"><g transform="translate(215.292906, 200.249987)"><g><path d="M 20.164062 0 L 26.035156 0 L 16.402344 -27.40625 L 9.710938 -27.40625 L 0.117188 0 L 5.949219 0 L 7.59375 -4.933594 L 18.519531 -4.933594 Z M 9.316406 -9.984375 L 13.074219 -21.179688 L 16.835938 -9.984375 Z M 9.316406 -9.984375 "/></g></g></g><g fill="#000000" fill-opacity="1"><g transform="translate(241.438809, 200.249987)"><g><path d="M 18.402344 -27.40625 L 18.402344 -10.6875 L 6.65625 -27.40625 L 2.542969 -27.40625 L 2.542969 0 L 7.949219 0 L 7.949219 -16.757812 L 19.691406 0 L 23.804688 0 L 23.804688 -27.40625 Z M 18.402344 -27.40625 "/></g></g></g><g fill="#000000" fill-opacity="1"><g transform="translate(267.780417, 200.249987)"><g><path d="M 2.542969 -27.40625 L 2.542969 0 L 7.949219 0 L 7.949219 -27.40625 Z M 2.542969 -27.40625 "/></g></g></g><g fill="#000000" fill-opacity="1"><g transform="translate(278.270094, 200.249987)"><g><path d="M 20.164062 0 L 26.035156 0 L 16.402344 -27.40625 L 9.710938 -27.40625 L 0.117188 0 L 5.949219 0 L 7.59375 -4.933594 L 18.519531 -4.933594 Z M 9.316406 -9.984375 L 13.074219 -21.179688 L 16.835938 -9.984375 Z M 9.316406 -9.984375 "/></g></g></g></svg>